<svg width="20" height="20" viewBox="0 0 20 20" fill="none" xmlns="http://www.w3.org/2000/svg">
<path d="M4.02405 15.2925C4.87405 14.6617 5.80001 14.1636 6.80193 13.7983C7.80384 13.4329 8.87018 13.2502 10.001 13.2502C11.1317 13.2502 12.1981 13.4329 13.2 13.7983C14.2019 14.1636 15.1279 14.6617 15.9779 15.2925C16.5997 14.6092 17.0923 13.8181 17.4558 12.9194C17.8192 12.0207 18.001 11.0476 18.001 10.0002C18.001 7.78349 17.2218 5.89599 15.6635 4.33766C14.1051 2.77933 12.2176 2.00016 10.001 2.00016C7.78429 2.00016 5.89678 2.77933 4.33845 4.33766C2.78012 5.89599 2.00095 7.78349 2.00095 10.0002C2.00095 11.0476 2.18268 12.0207 2.54615 12.9194C2.90962 13.8181 3.40225 14.6092 4.02405 15.2925ZM10.0013 10.7501C9.08824 10.7501 8.31827 10.4368 7.69135 9.81006C7.06444 9.18333 6.75098 8.41346 6.75098 7.50046C6.75098 6.58744 7.06434 5.81748 7.69105 5.19056C8.31779 4.56364 9.08765 4.25018 10.0007 4.25018C10.9137 4.25018 11.6836 4.56354 12.3106 5.19026C12.9375 5.81699 13.2509 6.58686 13.2509 7.49986C13.2509 8.41288 12.9376 9.18284 12.3109 9.80976C11.6841 10.4367 10.9143 10.7501 10.0013 10.7501ZM10.001 19.5001C8.68172 19.5001 7.44423 19.2521 6.28848 18.7559C5.13271 18.2597 4.12726 17.5841 3.27213 16.729C2.41701 15.8739 1.74138 14.8684 1.24523 13.7126C0.74906 12.5569 0.500977 11.3194 0.500977 10.0002C0.500977 8.68093 0.74906 7.44343 1.24523 6.28768C1.74138 5.13192 2.41701 4.12647 3.27213 3.27133C4.12726 2.41622 5.13271 1.74058 6.28848 1.24443C7.44423 0.748267 8.68172 0.500183 10.001 0.500183C11.3202 0.500183 12.5577 0.748267 13.7134 1.24443C14.8692 1.74058 15.8746 2.41622 16.7298 3.27133C17.5849 4.12647 18.2605 5.13192 18.7567 6.28768C19.2528 7.44343 19.5009 8.68093 19.5009 10.0002C19.5009 11.3194 19.2528 12.5569 18.7567 13.7126C18.2605 14.8684 17.5849 15.8739 16.7298 16.729C15.8746 17.5841 14.8692 18.2597 13.7134 18.7559C12.5577 19.2521 11.3202 19.5001 10.001 19.5001ZM10.001 18.0002C10.9035 18.0002 11.7737 17.855 12.6115 17.5646C13.4494 17.2742 14.1933 16.8681 14.8433 16.3463C14.1933 15.8437 13.459 15.4521 12.6404 15.1713C11.8218 14.8905 10.942 14.7501 10.001 14.7501C9.05992 14.7501 8.1785 14.8889 7.3567 15.1665C6.5349 15.4441 5.80221 15.8373 5.15863 16.3463C5.80863 16.8681 6.55254 17.2742 7.39038 17.5646C8.22819 17.855 9.09838 18.0002 10.001 18.0002ZM10.001 9.25019C10.4984 9.25019 10.9144 9.08288 11.2491 8.74826C11.5837 8.41363 11.751 7.99759 11.751 7.50016C11.751 7.00273 11.5837 6.58669 11.2491 6.25206C10.9144 5.91744 10.4984 5.75013 10.001 5.75013C9.50352 5.75013 9.08748 5.91744 8.75285 6.25206C8.41823 6.58669 8.25093 7.00273 8.25093 7.50016C8.25093 7.99759 8.41823 8.41363 8.75285 8.74826C9.08748 9.08288 9.50352 9.25019 10.001 9.25019Z" fill="black"/>
</svg>
