<svg width="18" height="18" viewBox="0 0 18 18" fill="none" xmlns="http://www.w3.org/2000/svg">
<mask id="mask0_39_209" style="mask-type:alpha" maskUnits="userSpaceOnUse" x="0" y="0" width="18" height="18">
<rect width="18" height="18" fill="#D9D9D9"/>
</mask>
<g mask="url(#mask0_39_209)">
<path d="M4.49998 14.25H7.00961V10.4712C7.00961 10.2791 7.07457 10.1181 7.2045 9.98817C7.33442 9.85825 7.49542 9.79329 7.6875 9.79329H10.3125C10.5045 9.79329 10.6655 9.85825 10.7955 9.98817C10.9254 10.1181 10.9903 10.2791 10.9903 10.4712V14.25H13.5V7.6154C13.5 7.57694 13.4916 7.54208 13.4747 7.51083C13.4579 7.47958 13.4351 7.45194 13.4062 7.4279L9.13701 4.21876C9.09854 4.18511 9.05287 4.16829 8.99998 4.16829C8.94709 4.16829 8.90142 4.18511 8.86296 4.21876L4.59373 7.4279C4.56489 7.45194 4.54206 7.47958 4.52522 7.51083C4.50839 7.54208 4.49998 7.57694 4.49998 7.6154V14.25ZM3.375 14.25V7.6154C3.375 7.40073 3.42302 7.19737 3.51906 7.00531C3.61509 6.81325 3.74784 6.65508 3.91731 6.5308L8.18653 3.31447C8.42344 3.13369 8.69421 3.0433 8.99882 3.0433C9.30343 3.0433 9.57497 3.13369 9.81343 3.31447L14.0827 6.5308C14.2521 6.65508 14.3849 6.81325 14.4809 7.00531C14.5769 7.19737 14.625 7.40073 14.625 7.6154V14.25C14.625 14.5567 14.5141 14.8209 14.2925 15.0425C14.0709 15.2642 13.8067 15.375 13.5 15.375H10.5433C10.3512 15.375 10.1902 15.31 10.0603 15.1801C9.93033 15.0502 9.86537 14.8892 9.86537 14.6971V10.9182H8.13459V14.6971C8.13459 14.8892 8.06963 15.0502 7.93971 15.1801C7.80977 15.31 7.64877 15.375 7.45671 15.375H4.49998C4.19326 15.375 3.92908 15.2642 3.70746 15.0425C3.48582 14.8209 3.375 14.5567 3.375 14.25Z" fill="#A7A7A7"/>
</g>
</svg>
