<svg width="24" height="24" viewBox="0 0 24 24" fill="none" xmlns="http://www.w3.org/2000/svg">
<path d="M4.39935 18.3989C4.0674 18.7308 4.0674 19.269 4.39935 19.6009C4.7313 19.9329 5.26949 19.9329 5.60143 19.6009L12.0004 13.202L18.3993 19.6009C18.7313 19.9329 19.2695 19.9329 19.6014 19.6009C19.9334 19.269 19.9334 18.7308 19.6014 18.3989L13.2025 11.9999L19.6014 5.60094C19.9334 5.269 19.9334 4.73081 19.6014 4.39886C19.2695 4.06692 18.7313 4.06692 18.3993 4.39886L12.0004 10.7978L5.60143 4.39886C5.26949 4.06692 4.7313 4.06692 4.39935 4.39886C4.0674 4.73081 4.0674 5.269 4.39935 5.60094L10.7983 11.9999L4.39935 18.3989Z" fill="#CA2B2B"/>
</svg>
