<svg width="215" height="32" viewBox="0 0 215 32" fill="none" xmlns="http://www.w3.org/2000/svg">
<path d="M189.759 28.5846C189.923 26.617 190.005 24.4307 190.005 22.0258V0.873878C189.65 0.873878 189.062 0.955863 188.242 1.11983C187.422 1.2838 186.698 1.44777 186.07 1.61174L185.906 1.36578L186.849 0.299988H198.162C200.677 0.299988 202.89 0.614261 204.803 1.24281C206.743 1.87135 208.233 2.75952 209.271 3.9073C210.337 5.02775 210.87 6.3395 210.87 7.84255C210.87 9.23628 210.323 10.4797 209.23 11.5728C208.164 12.666 206.675 13.5131 204.762 14.1143L209.066 20.3861C210.187 22.0805 211.225 23.6109 212.182 24.9773C213.138 26.3163 214.054 27.5188 214.928 28.5846V28.9945H203.86L202.918 27.9287L203.081 27.6828C203.327 27.7374 203.587 27.8057 203.86 27.8877C204.161 27.9424 204.475 28.0107 204.803 28.0927C205.896 28.3113 206.634 28.4206 207.017 28.4206L198.818 15.3851C198.654 15.3851 198.463 15.3988 198.244 15.4261C198.053 15.4261 197.875 15.4261 197.712 15.4261H196.277V22.0258C196.277 24.0754 196.345 26.2617 196.482 28.5846V28.9945H189.759V28.5846ZM197.793 14.6472C200.062 14.6472 201.838 14.0324 203.122 12.8026C204.407 11.5728 205.049 9.90582 205.049 7.80155C205.049 5.72462 204.38 4.0576 203.04 2.80051C201.729 1.54342 199.98 0.91487 197.793 0.91487H196.277V14.6472H197.793Z" fill="#F2AC4A"/>
<path d="M159.335 28.5846C159.39 27.956 159.445 26.9859 159.499 25.6741C159.554 24.5264 159.581 23.3103 159.581 22.0258V0.873878C159.226 0.873878 158.638 0.955863 157.818 1.11983C156.999 1.2838 156.274 1.44777 155.646 1.61174L155.482 1.36578L156.425 0.299988H166.058V0.709909C165.976 1.77571 165.921 2.90982 165.894 4.11226C165.867 4.82279 165.853 5.87492 165.853 7.26865V14.2373H168.149L174.584 6.73576C175.295 5.86126 176.019 4.90477 176.757 3.86631C177.522 2.80051 178.192 1.80303 178.765 0.873878C178.492 0.873878 178.137 0.91487 177.7 0.996855C177.29 1.05151 176.853 1.13349 176.388 1.24281L174.83 1.61174L174.666 1.36578L175.609 0.299988H182.701V0.668917C182.072 1.10617 181.43 1.57075 180.774 2.06265C180.118 2.55456 179.462 3.06013 178.806 3.57936C178.151 4.12592 177.508 4.69981 176.88 5.30103C176.251 5.90225 175.691 6.47614 175.199 7.0227L172.494 10.2611L179.831 21.206C181.389 23.4742 183.247 25.9338 185.406 28.5846V28.9945H174.133L173.191 27.9287L173.355 27.6828C173.6 27.7374 173.874 27.8057 174.174 27.8877C174.475 27.9424 174.776 28.0107 175.076 28.0927C175.513 28.1747 175.923 28.2566 176.306 28.3386C176.716 28.3933 177.044 28.4206 177.29 28.4206L168.353 15.0572H165.853V22.0258C165.853 23.4196 165.867 24.4717 165.894 25.1822C165.921 26.3847 165.976 27.5188 166.058 28.5846V28.9945H159.335V28.5846Z" fill="#F2AC4A"/>
<path d="M138.982 29.6094C136.687 29.6094 134.678 29.1448 132.956 28.2156C131.262 27.2592 129.95 25.9064 129.021 24.1574C128.092 22.4084 127.628 20.3588 127.628 18.0086L127.587 0.873878C127.231 0.873878 126.644 0.955863 125.824 1.11983C125.004 1.2838 124.28 1.44777 123.651 1.61174L123.487 1.36578L124.43 0.299988H137.056L137.999 1.36578L137.835 1.61174C137.206 1.44777 136.482 1.2838 135.662 1.11983C134.842 0.955863 134.255 0.873878 133.899 0.873878V16.8608C133.899 19.4843 134.2 21.6432 134.801 23.3376C135.402 25.0319 136.263 26.2754 137.384 27.0679C138.531 27.8331 139.911 28.2156 141.524 28.2156C143.054 28.2156 144.421 27.7784 145.623 26.9039C146.826 26.0021 147.741 24.7586 148.37 23.1736C149.025 21.5613 149.353 19.7029 149.353 17.5987V0.873878C148.998 0.873878 148.411 0.955863 147.591 1.11983C146.771 1.2838 146.047 1.44777 145.418 1.61174L145.254 1.36578L146.197 0.299988H151.936V0.709909C151.581 2.07631 151.198 4.28989 150.788 7.35064C150.378 10.3841 150.173 13.2808 150.173 16.041V17.5987C150.173 20.0855 149.722 22.2308 148.82 24.0344C147.919 25.8381 146.634 27.2182 144.967 28.1747C143.3 29.1311 141.305 29.6094 138.982 29.6094Z" fill="#F2AC4A"/>
<path d="M122.513 27.9287L121.775 28.9945H113.782V28.5846C113.891 26.453 113.946 24.2667 113.946 22.0258V17.5987C113.946 14.8932 113.591 12.8709 112.88 11.5318C112.17 10.1654 111.118 9.48224 109.724 9.48224C108.795 9.48224 107.961 9.85117 107.223 10.589C106.485 11.2996 105.898 12.338 105.461 13.7044C105.051 15.0435 104.846 16.5875 104.846 18.3365V22.0258C104.846 23.6929 104.9 25.8791 105.01 28.5846V28.9945H99.3937V28.5846C99.5304 25.8791 99.5987 23.6929 99.5987 22.0258V9.07231C99.1615 9.07231 98.2733 9.26361 96.9342 9.6462L96.4423 9.81017L96.3193 9.56422L97.0572 8.49843H100.583C101.266 8.49843 102.058 8.4711 102.96 8.41644C103.889 8.36179 104.572 8.29346 105.01 8.21148L105.051 8.45743C104.996 9.11331 104.955 9.81017 104.928 10.548C104.9 11.2859 104.887 12.0511 104.887 12.8436C105.433 11.3132 106.294 10.1381 107.469 9.31827C108.644 8.49842 110.052 8.0885 111.691 8.0885C113.276 8.0885 114.629 8.45743 115.75 9.19529C116.897 9.93315 117.758 11.0126 118.332 12.4337C118.933 13.8547 119.234 15.5764 119.234 17.5987V28.4206C119.562 28.4206 120.464 28.2157 121.939 27.8057C122.021 27.7784 122.103 27.7647 122.185 27.7647C122.267 27.7374 122.336 27.7101 122.39 27.6828L122.513 27.9287Z" fill="#2A80F4"/>
<path d="M95.111 16.2459L94.6601 16.4099C94.0589 15.3714 93.2937 14.3739 92.3645 13.4174C91.4627 12.4609 90.5199 11.6958 89.5361 11.1219C88.5523 10.548 87.6641 10.261 86.8716 10.261C86.2157 10.261 85.6282 10.6163 85.1089 11.3268C84.5897 12.0374 84.1798 13.0348 83.8792 14.3193C83.6059 15.6037 83.4692 17.0931 83.4692 18.7874V28.4206C83.7425 28.4206 84.2071 28.3386 84.863 28.1746C85.5188 27.9833 86.1064 27.8193 86.6256 27.6827L86.7486 27.9287L86.0108 28.9945H78.0173V28.5845C78.1539 25.879 78.2222 23.6928 78.2222 22.0258V9.07226C77.785 9.07226 76.8968 9.26356 75.5577 9.64615L75.0658 9.81012L74.9429 9.56417L75.6807 8.49837H79.2061C79.8893 8.49837 80.6818 8.47105 81.5836 8.41639C82.5128 8.36173 83.196 8.29341 83.6332 8.21143L83.6742 8.45738L83.5922 9.89211C83.5649 10.4113 83.5376 10.9442 83.5102 11.4908C83.5102 12.0374 83.5102 12.5976 83.5102 13.1715C84.0295 11.4498 84.781 10.1244 85.7648 9.19524C86.7486 8.26608 87.8144 7.8015 88.9622 7.8015C89.5907 7.8015 90.1236 7.88349 90.5609 8.04746C91.0255 8.21143 91.49 8.41639 91.9546 8.66234C92.1186 8.74433 92.2689 8.82631 92.4055 8.90829C92.5695 8.99028 92.7198 9.04493 92.8564 9.07226L91.7087 6.32579L91.7497 6.2438H92.8564L95.111 16.2459Z" fill="#2A80F4"/>
<path d="M56.7305 29.4455C54.5716 29.4455 52.8909 28.9536 51.6884 27.9698C50.5133 26.9586 49.9258 25.6332 49.9258 23.9935C49.9258 22.7638 50.281 21.7526 50.9916 20.9601C51.7294 20.1676 52.7269 19.5664 53.984 19.1564C55.2411 18.7192 56.7305 18.4323 58.4522 18.2956C60.1192 18.1316 61.4309 17.8994 62.3874 17.5987C63.3712 17.2708 64.0954 16.8062 64.56 16.205C65.0246 15.6038 65.2568 14.8249 65.2568 13.8685C65.2568 12.2561 64.9426 10.999 64.314 10.0972C63.6855 9.19535 62.8383 8.74444 61.7725 8.74444C61.0073 8.74444 60.0235 9.1407 58.8211 9.93321C57.6186 10.6984 56.4435 11.6685 55.2958 12.8437C54.148 13.9914 53.2461 15.1119 52.5903 16.205L52.5493 16.287L52.0574 16.123L54.6399 6.65384H55.7467V6.77681L54.6399 9.15436C55.1045 9.12703 55.8696 8.99039 56.9354 8.74444C57.8373 8.52581 58.6161 8.36184 59.272 8.25253C59.9552 8.14322 60.6521 8.08856 61.3626 8.08856C64.1227 8.08856 66.268 8.85375 67.7984 10.3841C69.3287 11.8872 70.0939 13.9778 70.0939 16.6559V28.4207C70.4219 28.4207 71.3237 28.2157 72.7994 27.8058C72.8814 27.7785 72.9634 27.7648 73.0454 27.7648C73.1273 27.7375 73.1957 27.7101 73.2503 27.6828L73.3733 27.9288L72.6354 28.9946H64.9699V28.5846C64.9972 28.1747 65.0109 27.7511 65.0109 27.3139C65.0382 26.8766 65.0656 26.4531 65.0929 26.0431C65.1202 25.7698 65.1339 25.4966 65.1339 25.2233C65.1339 24.95 65.1339 24.6767 65.1339 24.4034C64.5053 26.0158 63.4532 27.2592 61.9775 28.1337C60.5291 29.0082 58.7801 29.4455 56.7305 29.4455ZM59.067 28.0517C60.1328 28.0517 61.1303 27.7511 62.0595 27.1499C62.9886 26.5487 63.7401 25.6879 64.314 24.5674C64.8879 23.447 65.1749 22.1489 65.1749 20.6732L65.2159 16.41C64.8606 16.9292 64.3277 17.3938 63.6172 17.8037C62.9066 18.1863 62.0458 18.4596 61.0347 18.6235C59.0397 18.9242 57.564 19.4844 56.6075 20.3042C55.6783 21.1241 55.2138 22.2992 55.2138 23.8296C55.2138 25.114 55.569 26.1388 56.2796 26.904C57.0174 27.6692 57.9466 28.0517 59.067 28.0517Z" fill="#2A80F4"/>
<path d="M42.8541 30.7572L44.0429 28.1337C43.6056 28.161 43.1547 28.2293 42.6901 28.3386C42.2529 28.4206 41.8156 28.5163 41.3784 28.6256C40.6405 28.8715 39.971 29.0628 39.3698 29.1995C38.7685 29.3361 38.0853 29.4044 37.3202 29.4044C35.1066 29.4044 33.139 28.9535 31.4173 28.0517C29.6956 27.1225 28.3565 25.8518 27.4001 24.2394C26.4436 22.6271 25.9653 20.7961 25.9653 18.7465C25.9653 16.6969 26.4299 14.8659 27.3591 13.2535C28.2882 11.6412 29.5726 10.3841 31.2123 9.48224C32.852 8.55308 34.7377 8.0885 36.8692 8.0885C39.0282 8.0885 40.9138 8.53942 42.5262 9.44124C44.1658 10.3431 45.4229 11.6002 46.2974 13.2125C47.1993 14.7976 47.6638 16.6422 47.6912 18.7465C47.6912 18.8011 47.6912 18.8694 47.6912 18.9514C47.6912 19.0334 47.6912 19.1017 47.6912 19.1564H31.5403C31.5676 21.042 31.8135 22.7227 32.2781 24.1984C32.7427 25.6468 33.3713 26.7673 34.1638 27.5598C34.9836 28.3523 35.8991 28.7486 36.9102 28.7486C37.7301 28.7486 38.7549 28.3386 39.9846 27.5188C41.2144 26.6989 42.3895 25.7151 43.51 24.5674C44.6578 23.4196 45.4639 22.4221 45.9285 21.5749L46.0105 21.4929L46.5024 21.6159L44.0019 30.8801H42.8951L42.8541 30.7572ZM42.1982 18.3365C42.1709 16.3962 41.9386 14.7156 41.5014 13.2945C41.0641 11.8461 40.4492 10.7257 39.6567 9.93315C38.8915 9.14064 37.9624 8.74438 36.8692 8.74438C35.8035 8.74438 34.8743 9.14064 34.0818 9.93315C33.2893 10.7257 32.6744 11.8461 32.2371 13.2945C31.7999 14.7156 31.5676 16.3962 31.5403 18.3365H42.1982Z" fill="#2A80F4"/>
<path d="M20.3321 31.659L21.8078 28.9945H3.85326V28.5846C4.01723 26.617 4.09922 24.4307 4.09922 22.0258V0.873878C3.74395 0.873878 3.1564 0.955863 2.33655 1.11983C1.51671 1.2838 0.792515 1.44777 0.163969 1.61174L0 1.36578L0.94282 0.299988H10.576V0.709909C10.4393 3.00547 10.371 5.19172 10.371 7.26865V28.3796H11.3958C12.9535 28.3796 14.6479 27.9424 16.4788 27.0679C18.3098 26.1934 19.9359 25.1549 21.3569 23.9525C22.8053 22.7227 23.7208 21.6432 24.1034 20.7141L24.1854 20.5501L24.6773 20.7551L21.5619 31.7H20.3321V31.659Z" fill="#2A80F4"/>
</svg>
