<svg width="11" height="24" viewBox="0 0 11 24" fill="none" xmlns="http://www.w3.org/2000/svg">
<path d="M9.23233 2.78631C9.63671 2.40456 10.2923 2.40456 10.6967 2.78631C11.1011 3.16805 11.1011 3.78695 10.6967 4.16894L2.49186 11.9108L10.6913 19.8311C10.893 20.0226 10.9951 20.2729 10.9951 20.523C10.9951 20.7733 10.8943 21.0235 10.6913 21.2137C10.2869 21.5954 9.63131 21.5954 9.22693 21.2137L0.303287 12.5939C0.202192 12.4985 0.12637 12.3882 0.0758219 12.2705C-0.0758219 11.9175 0 11.4978 0.303287 11.2115" fill="#1A1A1A"/>
<path d="M9.23233 2.78631C9.63671 2.40456 10.2923 2.40456 10.6967 2.78631C11.1011 3.16805 11.1011 3.78695 10.6967 4.16894L2.49186 11.9108L10.6913 19.8311C10.893 20.0226 10.9951 20.2729 10.9951 20.523C10.9951 20.7733 10.8943 21.0235 10.6913 21.2137C10.2869 21.5954 9.63131 21.5954 9.22693 21.2137L0.303287 12.5939C0.202192 12.4985 0.12637 12.3882 0.0758219 12.2705C-0.0758219 11.9175 0 11.4978 0.303287 11.2115" fill="black" fill-opacity="0.2"/>
</svg>
